<?xml version="1.0" encoding="UTF-8"?>
<svg id="Layer_1" data-name="Layer 1" xmlns="http://www.w3.org/2000/svg" version="1.1" viewBox="0 0 50 50">
  <defs>
    <style>
      .cls-1 {
        fill: #000;
      }

      .cls-1, .cls-2, .cls-3 {
        stroke-width: 0px;
      }

      .cls-2 {
        fill: #c264e1;
      }

      .cls-3 {
        fill: #f9b745;
      }
    </style>
  </defs>
  <g>
    <path class="cls-3" d="M41.3,21.3c0-3.3-2.7-6-6-6s-6,2.7-6,6,2.7,6,6,6,6-2.7,6-6h0ZM33.3,21.3c0-1.1.9-2,2-2s2,.9,2,2-.9,2-2,2-2-.9-2-2h0ZM35.3,29.2c-2.7,0-5.2,1.1-7.1,3-2.4-5.1-8-7.8-13.4-6.6-5.5,1.2-9.4,6.1-9.4,11.7v6h39.9v-4c0-5.5-4.5-10-10-10h0ZM29.4,39.2c0-3.3,2.7-6,6-6s6,2.7,6,6h-12Z"/>
    <path class="cls-1" d="M25.4,15.3c0,4.4-3.6,8-8,8s-8-3.6-8-8,3.6-8,8-8,8,3.6,8,8h0Z"/>
  </g>
  <g>
    <path class="cls-2" d="M30.1,43.3H4.7v-6.1c0-7,5.7-12.7,12.7-12.7h0c7,0,12.7,5.7,12.7,12.7v6.1"/>
    <path class="cls-2" d="M25.8,15.1c0,4.7-3.8,8.5-8.5,8.5s-8.5-3.8-8.5-8.5,3.8-8.5,8.5-8.5,8.5,3.8,8.5,8.5h0Z"/>
  </g>
</svg>