<?xml version="1.0" encoding="UTF-8"?>
<svg id="Layer_1" data-name="Layer 1" xmlns="http://www.w3.org/2000/svg" version="1.1" viewBox="0 0 50 50">
  <defs>
    <style>
      .cls-1 {
        fill: #f5b345;
      }

      .cls-1, .cls-2 {
        stroke-width: 0px;
      }

      .cls-2 {
        fill: #bd64dd;
      }
    </style>
  </defs>
  <path class="cls-2" d="M48.3,29.2h0c-3.4,0-5.5-2.1-8-3.9-1.8-1.3-3.9-2.4-6.8-2.4s-2.5,0-3.4,0h-2.9c1,0,1.8.8,1.8,1.8s-.8,1.8-1.8,1.8h-4.1s0,0,0,0h6.5c1.3.2,2.3,1.4,2.3,2.7s-.6,1.9-1.4,2.4c-.2,0-1.2.3-2.5.7-.9.2-1.7.4-2.4.6h-.2c-2.9.8-6,1.6-6.5,1.8-.4,0-.7,0-1,0l-10.3-6.7-1.9-1.4h0c0,0-.2-.1-.3-.2-.1,0-.3-.1-.4-.2-.1,0-.2,0-.4,0-.1,0-.3,0-.4,0s-.4,0-.5,0c-1.5.1-2.7,1.4-2.7,3s.3,1.6.9,2.1h0s0,0,0,0c.2.2.5.4.7.5l.7.5,16.2,11.7h0c0,0,.1,0,.2,0,.4.1.7.2,1.2.2s.5,0,.7,0h0c5.5-1.4,16.8-4.3,22.1-5.6.1,0,.3,0,.4-.1,1.4-.3,3.2-.7,4.3-.7v-.8h0s0-1.1,0-1.1v-6.9Z"/>
  <path class="cls-1" d="M19.7,17.8c.2,0,1.2-.3,2.5-.7.9-.2,1.7-.4,2.4-.6h.2c2.9-.8,6-1.6,6.5-1.8.4,0,.7,0,1,0l10.3,6.7,1.9,1.4h0c0,0,.2.1.3.2.1,0,.3.1.4.2.1,0,.2,0,.4,0,.1,0,.3,0,.4,0s.4,0,.5,0c1.5-.1,2.7-1.4,2.7-3s-.3-1.6-.9-2.1h0s0,0,0,0c-.2-.2-.5-.4-.7-.5l-.7-.5L30.8,5.4h0c0,0-.1,0-.2,0-.4-.1-.7-.2-1.2-.2s-.5,0-.7,0h0c-5.5,1.4-16.8,4.3-22.1,5.6-.1,0-.3,0-.4.1-1.4.3-3.2.7-4.3.7v.8h0s0,1.1,0,1.1v6.9h0c3.4,0,5.5,2.1,8,3.9,1.8,1.3,3.9,2.4,6.8,2.4s2.5,0,3.4,0h7c1,0,1.8-.8,1.8-1.8s-.8-1.8-1.8-1.8c0,0,0,0,0,0h-6.5c-1.3-.2-2.3-1.4-2.3-2.7s.6-1.9,1.4-2.4Z"/>
</svg>