<?xml version="1.0" encoding="UTF-8"?>
<svg id="Layer_1" data-name="Layer 1" xmlns="http://www.w3.org/2000/svg" version="1.1" viewBox="0 0 50 50">
  <defs>
    <style>
      .cls-1 {
        fill: #c264e1;
      }

      .cls-1, .cls-2, .cls-3 {
        stroke-width: 0px;
      }

      .cls-2 {
        fill: #f4ce95;
      }

      .cls-3 {
        fill: #f9b745;
      }
    </style>
  </defs>
  <path class="cls-1" d="M2.2,44.8c.5.5,1.3.9,2.1.9h41.1c.8,0,1.5-.3,2.1-.9.5-.5.9-1.3.9-2.1v-24H1.4v24c0,.8.3,1.5.9,2.1ZM38.8,20.6h6.7v6h-6.7v-6ZM38.8,28.2h6.7v6h-6.7v-6ZM30.1,20.6h6.7v6h-6.7v-6ZM30.1,28.2h6.7v6h-6.7v-6ZM30.1,35.9h6.7v6h-6.7v-6ZM21.4,20.6h6.7v6h-6.7v-6ZM21.4,28.2h6.7v6h-6.7v-6ZM21.4,35.9h6.7v6h-6.7v-6ZM12.8,20.6h6.7v6h-6.7v-6ZM12.8,28.2h6.7v6h-6.7v-6ZM12.8,35.9h6.7v6h-6.7v-6ZM4.1,28.2h6.7v6h-6.7v-6ZM4.1,35.9h6.7v6h-6.7v-6Z"/>
  <rect class="cls-2" x="1.4" y="15.9" width="46.9" height="1.7"/>
  <path class="cls-3" d="M6.2,7.6h-1.9c-.8,0-1.5.3-2.1.9-.5.5-.9,1.3-.9,2.1v3.4h46.9v-3.4c0-.8-.3-1.5-.9-2.1-.5-.5-1.3-.9-2.1-.9h-4.9v3.8c0,.7-.6,1.3-1.3,1.3h-2.7c-.7,0-1.3-.6-1.3-1.3v-3.8H14.5v3.8c0,.7-.6,1.3-1.3,1.3h-2.7c-.7,0-1.3-.6-1.3-1.3v-3.8h-3Z"/>
  <rect class="cls-3" x="1.4" y="13.9" width="46.9" height="2"/>
  <polygon class="cls-1" points="10.5 11.4 13.2 11.4 13.2 7.6 13.2 4.3 10.5 4.3 10.5 7.6 10.5 11.4"/>
  <polygon class="cls-1" points="36.4 11.4 39.1 11.4 39.1 7.6 39.1 4.3 36.4 4.3 36.4 7.6 36.4 11.4"/>
  <rect class="cls-3" x="12.8" y="20.6" width="6.7" height="6"/>
  <rect class="cls-3" x="21.4" y="20.6" width="6.7" height="6"/>
  <rect class="cls-3" x="30.1" y="20.6" width="6.7" height="6"/>
  <rect class="cls-3" x="38.8" y="20.6" width="6.7" height="6"/>
  <rect class="cls-3" x="4.1" y="28.2" width="6.7" height="6"/>
  <rect class="cls-3" x="12.8" y="28.2" width="6.7" height="6"/>
  <rect class="cls-3" x="21.4" y="28.2" width="6.7" height="6"/>
  <rect class="cls-2" x="30.1" y="28.2" width="6.7" height="6"/>
  <rect class="cls-3" x="38.8" y="28.2" width="6.7" height="6"/>
  <rect class="cls-3" x="4.1" y="35.9" width="6.7" height="6"/>
  <rect class="cls-2" x="12.8" y="35.9" width="6.7" height="6"/>
  <rect class="cls-3" x="21.4" y="35.9" width="6.7" height="6"/>
  <rect class="cls-3" x="30.1" y="35.9" width="6.7" height="6"/>
</svg>