<?xml version="1.0" encoding="UTF-8"?>
<svg xmlns="http://www.w3.org/2000/svg" version="1.1" viewBox="0 0 50 50">
  <defs>
    <style>
      .cls-1 {
        fill: #3c3c3c;
      }

      .cls-1, .cls-2, .cls-3, .cls-4, .cls-5, .cls-6, .cls-7, .cls-8, .cls-9, .cls-10, .cls-11 {
        stroke-width: 0px;
      }

      .cls-2 {
        fill: #505050;
      }

      .cls-3 {
        fill: #ffdcb9;
      }

      .cls-12 {
        isolation: isolate;
      }

      .cls-4 {
        fill: #c264e1;
      }

      .cls-5 {
        fill: #ffc8af;
        mix-blend-mode: multiply;
      }

      .cls-5, .cls-8 {
        opacity: .2;
      }

      .cls-6 {
        fill: #e6e6e6;
      }

      .cls-7, .cls-8 {
        fill: #ffe1c3;
      }

      .cls-8 {
        mix-blend-mode: screen;
      }

      .cls-9 {
        fill: #f9b745;
      }

      .cls-10 {
        fill: #f0f0f0;
      }

      .cls-11 {
        fill: #8a43a8;
      }
    </style>
  </defs>
  <g class="cls-12">
    <g id="Layer_1" data-name="Layer 1">
      <g>
        <path class="cls-7" d="M24.9,29.5c2.3,0,6.7-2.7,8.1-10,1.4-7.3-1.9-11.9-8.1-11.9s-9.5,4.6-8.1,11.9c1.4,7.3,5.8,10,8.1,10Z"/>
        <path class="cls-7" d="M16.8,19.5c0-.4-.1-.8-.2-1.3-.4-.5-.8-.9-1.2-.7-.9.2-1.1.9-.2,3.1.9,2.1,1.6,2.9,2.1,2.7.2,0,.3-.3.4-.6-.4-.9-.7-2-.9-3.2Z"/>
        <path class="cls-7" d="M33,19.5c0-.4.1-.8.2-1.3.4-.5.8-.9,1.2-.7.9.2,1.1.9.2,3.1-.9,2.1-1.6,2.9-2.1,2.7-.2,0-.3-.3-.4-.6.4-.9.7-2,.9-3.2Z"/>
        <path class="cls-8" d="M33,19.5c1.4-7.3-1.9-11.9-8.1-11.9v21.9c2.3,0,6.7-2.7,8.1-10Z"/>
        <path class="cls-9" d="M24.9,5.5c1.7,0,3.4.3,4.8.9.1-.3.2-.6.2-.9,0-1.9-2.2-3.4-5-3.4s-5,1.5-5,3.4,0,.6.2.9c1.5-.6,3.1-.9,4.8-.9Z"/>
        <path class="cls-3" d="M29.6,33.9c-1,2.1-4.7,3.2-4.7,3.2,0,0-3.6-1.2-4.7-3.2,1.3-1.5,1.2-3.5,1-4.9-.2-.9-.4-1.5-.4-1.5h0c1.5,1.4,3,2,4.1,2s2.6-.6,4.1-2h0s-.2.6-.4,1.5c-.2,1.3-.3,3.3,1,4.9Z"/>
        <polygon class="cls-6" points="17.1 34.9 23.2 47.9 27.1 47.9 32.3 34.8 31.2 34.6 24.9 36.1 18.6 34.6 17.1 34.9"/>
        <polygon class="cls-10" points="21.3 31.2 20.4 31.4 18.5 34.4 23.1 40.1 24.9 36.1 21.2 32.1 21.3 31.2"/>
        <path class="cls-11" d="M24.1,47.9h-15.7s2.1-10.3,3-11.3c0,0,0,0,0,0,.9-.7,7.2-1.9,7.2-1.9l1.3,3.2,1,2.5,3.1,7.6Z"/>
        <polygon class="cls-10" points="28.5 31.2 29.4 31.4 31.4 34.4 26.8 40.1 24.9 36.1 28.7 32.1 28.5 31.2"/>
        <path class="cls-11" d="M31.2,34.6s6.3,1.2,7.2,1.9c.9.7,3.1,11.3,3.1,11.3h-15.7l5.5-13.3Z"/>
        <path class="cls-5" d="M29,27.5s-.2.6-.4,1.5c-1.3,1.1-2.7,1.6-3.7,1.6s-2.3-.5-3.7-1.6c-.2-.9-.4-1.5-.4-1.5h0c1.5,1.4,3,2,4.1,2s2.6-.6,4.1-2h0Z"/>
        <path class="cls-9" d="M24.8,5.2c-8.9,0-9.6,8.7-9.2,11.9.2,1.6,1.4,3.8,1.4,3.8,0,0,.4-5,3.1-6.2,2.8-1.2,6.8-.6,8.8-3.5,2.3,3.5,3.3,5,3.8,9,2.5-2.7,4.6-14.9-7.9-15Z"/>
        <path class="cls-4" d="M11.5,36.6v11.3h-3s2.1-10.3,3-11.3Z"/>
        <path class="cls-4" d="M38.4,36.6v11.3h3s-2.1-10.3-3-11.3Z"/>
        <path class="cls-1" d="M27.8,35.2c0,0,.2,0,.2,0,0,0,0,0,.1-.1,0,0,0,0,0-.1,0,0,0,0,0-.1,0-.1,0-.2-.2-.3,0,0-.2-.1-.2-.2-.5-.4-1.1-.9-1.6-1.3,0,0,0,0,0,0-.1,0-.2-.1-.3-.1,0,0,0,0-.1,0,0,0-.1,0-.1,0,0,0,0,0,0,.1,0,0,0,.1,0,.2,0,.2.1.3.3.4.5.4,1.1.9,1.6,1.3.2.1.3.3.6.3Z"/>
        <path class="cls-2" d="M16.3,17c0-.3-.3-.5-.6-.5-1.3.1-2.7,1-2.2,3.9.4,2.6,2.2,7.8,5.4,10.8,3.3,3.1,5.1,3.7,6.9,2.8.6-.3.9-1.4,1-2,0-.3,0-.5-.3-.6l-3.3-1.7-4.9-6s-1.3-2.8-1.9-6.6Z"/>
        <path class="cls-7" d="M24.5,30.4s0,0,0,0c-.1-.1-.3-.3-.7-.3,0,0-.1,0-.2,0-.3,0-.7.2-1.1.6-.7.7-1.2.9-1.4,1.4-.2.4-.3.9-.1,2,.3,2.4,0,5-.6,6.1-.6,1.1-4.4-3-4.4-3,0,0-.6-4.6-.9-6.8-.2-1.3-.3-2,0-2.9.1-.6.4-1.2,1-2,.6-1,1.3-1.7,2-2h0c.2-.1.4-.2.7-.2h0c.7,0,1.4.2,2,.9,1.6,1.8,3.5,4.1,3.9,6.3,0,0,0,0,0,.1Z"/>
        <polygon class="cls-4" points="21.5 38.2 21 40.3 19.2 47.9 12.1 47.9 14.8 36.6 20 37.8 21.5 38.2"/>
        <path class="cls-5" d="M24.4,30.3s0,0,0,0c-.3,0-.6,0-.9-.3.7-.3-2.5-4-3.5-5.1-.9-1.1-1.5-1.7-2.1-1.6.9-.4,1.8-.3,2.7.7,1.6,1.8,3.5,4.1,3.9,6.3Z"/>
        <g>
          <path class="cls-8" d="M18.6,23.1h0c-.2,0-.5.1-.7.2.2-.1.5-.2.7-.2h0Z"/>
          <path class="cls-8" d="M20,24.9c-.9-1.1-1.5-1.7-2.1-1.6h0c-.7.3-1.4,1.1-2,2-.5.9-.8,1.5-1,2l6.1,4.6c.2-.4.7-.7,1.4-1.4.4-.4.8-.6,1.1-.6.7-.3-2.5-4-3.5-5.1Z"/>
        </g>
        <path class="cls-2" d="M23.8,46.1h.8c0,0-.8.5-.8.5,0,0,0,.1,0,.2,0,0,.1.1.2,0l.8-.2-.7.8c0,0,0,.2,0,.2,0,0,.2,0,.2,0l.7-.4-.2.5h1.1v-.4c.1,0,0-.2,0-.2,0,0-.2,0-.2,0l-.3.3.2-.5c0,0,0-.2,0-.2,0,0-.2,0-.2,0h-.1c0,0,.3-.2.3-.2,0,0,0-.1,0-.2,0,0-.1-.1-.2,0h-.5c0,.1.6-.3.6-.3,0,0,0-.1,0-.2,0,0-.1-.1-.2-.1h-.3s.5-.2.5-.2c0,0,.1,0,0-.2,0,0,0-.1-.2-.2h-.6c0-.1.8-.3.8-.3,0,0,.1,0,.1-.2,0,0,0-.1-.2-.2h-.5c0-.1.7-.2.7-.2,0,0,.1,0,.2-.1,0,0,0-.2-.1-.2l-.5-.2h.8c0,0,.2,0,.2,0,0,0,0-.2,0-.2l-.3-.2h.5c0,.2.2.1.2,0,0,0,0-.1,0-.2l-.4-.5.8.4c0,0,.2,0,.2,0,0,0,0-.1,0-.2l-.5-.6.8.5c0,0,.2,0,.2,0,0,0,0-.1,0-.2l-.5-.6.7.4c0,0,.2,0,.2,0,0,0,0-.1,0-.2l-.4-.6,1,.5c0,0,.2,0,.2,0,0,0,0-.2,0-.2l-.7-.7,1,.3c0,0,.2,0,.2,0,0,0,0-.2,0-.2l-.7-.5h.9c0,.1.2,0,.2,0,0,0,0-.2-.1-.2l-.9-.5h1.1c0,0,.2-.1.2-.2,0,0,0-.2-.2-.2l-.8-.2.9-.2c0,0,.1,0,.1-.2,0,0,0-.1-.2-.2h-.8c0-.1.9-.5.9-.5,0,0,.1-.1,0-.2,0,0,0-.1-.2-.1h-1.1c0-.1,1-.7,1-.7,0,0,0-.1,0-.2,0,0-.1-.1-.2-.1h-.7c0,.1.6-.3.6-.3,0,0,0-.1,0-.2,0,0-.1-.1-.2,0l-.9.2.8-.7c0,0,0-.1,0-.2,0,0-.2-.1-.2,0l-.7.2c.1-.2.2-.4.2-.5,0-.2-.2-.4-.6-.6v.3c0,0,.2.2.2.3,0,.1,0,.4-.7.8,0,0,0,.1,0,.2,0,0,.2.1.2,0l.7-.2-.6.5c0,0,0,.1,0,.2,0,0,.1.1.2,0l.8-.2-.6.5c0,0,0,.1,0,.2,0,0,.1.1.2,0h.4c0,0-.5.2-.5.2,0,0,0,.1,0,.2,0,0,0,.1.2.1h.9c0,0-.8.4-.8.4,0,0-.1,0,0,.2,0,0,0,.1.2.2h.7c0,.1-.8.3-.8.3,0,0-.1,0-.1.2,0,0,0,.1.1.2h.4c0,.1-.7.2-.7.2,0,0-.1,0-.2.1,0,0,0,.1.1.2l.7.3h-.7c0,0-.2,0-.2,0,0,0,0,.2,0,.2l.5.3-.7-.2c0,0-.2,0-.2,0,0,0,0,.1,0,.2l.5.5-.8-.4c0,0-.2,0-.2,0,0,0,0,.1,0,.2l.4.5-.8-.4c0,0-.2,0-.2,0,0,0,0,.1,0,.2l.4.5-.8-.4c0,0-.2,0-.2,0,0,0,0,.1,0,.2l.6.8-1-.5c0,0-.2,0-.2,0,0,0,0,.2,0,.2l.6.7-1.1-.3c0,0-.2,0-.2,0,0,0,0,.2,0,.2l.7.4h-1.1c0,0-.2,0-.2,0,0,0,0,.2.1.2l.8.3h-1.1c0,0-.2.1-.2.2,0,0,0,.2.2.2l.8.2-1,.2h0c0,0-.1,0-.1.2,0,0,0,.1.2.2l.9.2-1,.4c0,0-.1.1,0,.2,0,0,.1.1.2.1Z"/>
      </g>
    </g>
  </g>
</svg>