<?xml version="1.0" encoding="UTF-8"?>
<svg id="Layer_1" data-name="Layer 1" xmlns="http://www.w3.org/2000/svg" version="1.1" viewBox="0 0 50 50">
  <defs>
    <style>
      .cls-1 {
        stroke-width: 3px;
      }

      .cls-1, .cls-2, .cls-3 {
        stroke: #bd64dd;
        stroke-linecap: round;
      }

      .cls-1, .cls-2, .cls-3, .cls-4 {
        fill: none;
        stroke-miterlimit: 10;
      }

      .cls-2 {
        stroke-width: 1.5px;
      }

      .cls-5 {
        fill: #f5b345;
        stroke-width: 0px;
      }

      .cls-3, .cls-4 {
        stroke-width: 2px;
      }

      .cls-4 {
        stroke: #f5b345;
      }
    </style>
  </defs>
  <path class="cls-5" d="M10.7,16.4h25.4v15.3c0,5.6-4.5,10.1-10.1,10.1h-5.2c-5.6,0-10.1-4.5-10.1-10.1v-15.3h0Z"/>
  <circle class="cls-4" cx="36.6" cy="26.2" r="5"/>
  <line class="cls-1" x1="7.8" y1="45.2" x2="40" y2="45.2"/>
  <circle class="cls-3" cx="23.5" cy="28" r="4" transform="translate(-9.1 44.5) rotate(-76.8)"/>
  <path class="cls-2" d="M20.9,4c.1.2,1.1,1.9.3,3.7-.4.9-1.1.9-1.2,1.5-.2,1.2,1.6,1.8,1.8,3.3,0,.6-.1,1.4-1.2,2.5"/>
  <path class="cls-2" d="M24.6,4c.1.2,1.1,1.9.3,3.7-.4.9-1.1.9-1.2,1.5-.2,1.2,1.6,1.8,1.8,3.3,0,.6-.1,1.4-1.2,2.5"/>
</svg>