<?xml version="1.0" encoding="UTF-8"?>
<svg id="Layer_1" data-name="Layer 1" xmlns="http://www.w3.org/2000/svg" version="1.1" viewBox="0 0 50 50">
  <defs>
    <style>
      .cls-1, .cls-2, .cls-3, .cls-4, .cls-5, .cls-6, .cls-7, .cls-8, .cls-9, .cls-10, .cls-11, .cls-12, .cls-13, .cls-14 {
        stroke-width: 0px;
      }

      .cls-1, .cls-3, .cls-6, .cls-7, .cls-9, .cls-10, .cls-11, .cls-13 {
        fill-rule: evenodd;
      }

      .cls-1, .cls-12 {
        fill: #fff;
      }

      .cls-2, .cls-7 {
        fill: #eee;
      }

      .cls-3, .cls-4 {
        fill: #c264e1;
      }

      .cls-5 {
        fill: #fbfbfb;
      }

      .cls-6 {
        fill: #f9f9f9;
      }

      .cls-8, .cls-10 {
        fill: #874aa0;
      }

      .cls-9 {
        fill: #f9b745;
      }

      .cls-11 {
        fill: #d4d4d4;
      }

      .cls-13, .cls-14 {
        fill: #fefefe;
      }
    </style>
  </defs>
  <polygon class="cls-11" points="10.3 41.9 13 41.7 12.4 41.6 9.7 41.8 10.3 41.9"/>
  <polygon class="cls-11" points="6.7 41 6.5 41.6 5.5 41.5 5.7 41 6.7 41"/>
  <polygon class="cls-11" points="9.4 41.1 10.7 41.6 11.7 41.6 10.3 41 9.4 41.1"/>
  <path class="cls-9" d="M21.1,28.6l-1.9,1-.5-1c0-.2-.3-.3-.5-.2l-.8.4v.5l.6-.3c.2,0,.4,0,.5.2l.3.6-1.4.7v7.2l6.7-3.5c.5-.3.7-.9.4-1.4l-2-3.9c-.3-.5-.9-.7-1.4-.4ZM17.4,28.8l-1.9,1c-.2,0-.3.3-.2.5l.5,1-1.9,1c-.5.3-.7.9-.4,1.4l2,3.9c.3.5.9.7,1.4.4l.4-.2v-7.2l-1.1.6-.3-.6c0-.2,0-.4.2-.5l1.2-.6v-.5Z"/>
  <path class="cls-3" d="M13.5,21.5h0c-.7.3-1.1,1.2-.8,1.9l2.8,6.4c.3.7,1.2,1.1,1.9.8h0c.7-.3,1.1-1.2.8-1.9l-2.8-6.4c-.3-.7-1.2-1.1-1.9-.8Z"/>
  <rect class="cls-12" x="14.2" y="26.5" width="3.3" height="1" transform="translate(-9.4 8.5) rotate(-23.5)"/>
  <path class="cls-3" d="M17.4,26.2l-2.4-5.2s0,0,0-.1l-.9-5c-.2-.9-1-1.5-1.9-1.3h-.2c-.9.2-1.5,1-1.3,1.9l.9,5c0,.2,0,.5.1.7l2.5,5.5,3.2-1.5Z"/>
  <rect class="cls-12" x="17.9" y="23.5" width="3.3" height="1" transform="translate(-9.4 35.1) rotate(-71.8)"/>
  <path class="cls-3" d="M9.7,29h0c1.1-.1,2.1.7,2.2,1.8l1.2,12.3c.1,1.1-.7,2.1-1.8,2.2h0c-1.1.1-2.1-.7-2.2-1.8l-1.2-12.3c-.1-1.1.7-2.1,1.8-2.2Z"/>
  <path class="cls-2" d="M8,32.9v-1.8c.1,0,.1,0,.1,0h0s0,0,0,0c0-.3,0-.6-.2-.8,0-.2.2-.4.4-.6.3.4.5.9.4,1.5h0s0,0,0,0h0s-.4,5.7-.4,5.7l-.4-3.9Z"/>
  <path class="cls-3" d="M6.6,28.9h0c-1.1,0-2.1.8-2.1,1.9l-.9,12.3c0,1.1.8,2.1,1.9,2.1h0c1.1,0,2.1-.8,2.1-1.9l.9-12.3c0-1.1-.8-2.1-1.9-2.1Z"/>
  <path class="cls-12" d="M8.2,14.3h4.4c.5,0,1,.2,1.3.6.3.3.6.8.6,1.3v12.9c0,.5-.2,1-.6,1.3-.3.3-.8.6-1.3.6h-4.4v-.7h4.4c.3,0,.6-.1.9-.4.2-.2.4-.5.4-.9v-12.9c0-.3-.1-.6-.4-.9-.2-.2-.5-.4-.9-.4h-4.4v-.7ZM3.9,14.3h4.4v.7H3.9c-.3,0-.6.1-.9.4-.2.2-.4.5-.4.9v12.9c0,.3.1.6.4.9.2.2.5.4.9.4h4.4v.7H3.9c-.5,0-1-.2-1.3-.6-.3-.3-.6-.8-.6-1.3v-12.9c0-.5.2-1,.6-1.3.3-.3.8-.6,1.3-.6Z"/>
  <rect class="cls-4" x="2.3" y="14.6" width="11.8" height="16" rx="1.6" ry="1.6"/>
  <polygon class="cls-6" points="8.9 15.4 8.2 30.7 9.9 30.7 11.2 30.7 10 15.3 8.9 15.4"/>
  <path class="cls-3" d="M10.1,21.8l-.4-4.9h-.3s-.2,5-.2,5l.5.6.4-.7Z"/>
  <path class="cls-1" d="M5.7,14.2l2.2,3.3,1.5-1.9,2.7,1.4.5-2.6s-6.9.1-6.9-.1Z"/>
  <path class="cls-10" d="M21.9,23.4h0c.1.8-.4,1.5-1.2,1.7l-6.9,1.2c-.8.1-1.5-.4-1.7-1.2h0c-.1-.8.4-1.5,1.2-1.7l6.9-1.2c.8-.1,1.5.4,1.7,1.2Z"/>
  <path class="cls-3" d="M5.3,22.1h0c-.3.8.2,1.6.9,1.8l6.6,2.2c.8.3,1.6-.2,1.8-.9h0c.3-.8-.2-1.6-.9-1.8l-6.6-2.2c-.8-.3-1.6.2-1.8.9Z"/>
  <rect class="cls-12" x="9.7" y="23.6" width="3.3" height="1" transform="translate(-15.1 27.4) rotate(-71.8)"/>
  <path class="cls-5" d="M6.5,20.3l5,1.7c.2,0,.3.2.2.4,0,0,0,0,0,0l-1.1,3.2c0,.2-.2.3-.4.2l-3.8-1.2v-.7l3.7,1.2.9-2.6-4.5-1.5v-.7ZM2.8,14.4h.2c.5-.2,1,0,1.4.2.4.3.7.7.9,1.2l1.1,4.5h0v.7l-.5-.2h0c-.1,0-.2-.1-.2-.2l-1.1-4.7c0-.3-.3-.6-.6-.8-.3-.2-.6-.2-.9-.2h-.2s0,0,0,0h0s0,0,0,0c-.3,0-.6.3-.8.6-.2.3-.2.6-.2.9,0,0,0,0,0,0h0s0,0,0,0l1.3,5.4c0,.4.2.6.4.9.2.2.5.3.8.5l2,.7v.7l-2.2-.7c-.4-.1-.8-.3-1.1-.6-.3-.3-.5-.7-.6-1.2l-1.3-5.4h0s0,0,0,0h0s0,0,0,0c-.1-.5,0-1,.3-1.4.3-.4.7-.7,1.2-.8h0s0,0,0,0h0s0,0,0,0Z"/>
  <path class="cls-3" d="M2.8,14.7h.2c.9-.2,1.7.3,1.9,1.2l1.1,4.7,5.3,1.7-1.1,3.2-6-2c-.8-.3-1.2-.7-1.4-1.5l-1.3-5.4c-.2-.8.4-1.7,1.2-1.9Z"/>
  <path class="cls-3" d="M9.8,15.6c.2.4.3.7,0,1.1h-.6c-.3-.2-.3-.6,0-1.1h.7Z"/>
  <circle class="cls-4" cx="9.2" cy="10" r="4.7"/>
  <path class="cls-10" d="M27.3,28.8h0c-1.1,0-2,.9-2,2v12.3c0,1.1.8,2,1.9,2h0c1.1,0,2-.9,2-2v-12.3c0-1.1-.8-2-1.9-2Z"/>
  <path class="cls-10" d="M30.8,25.4h0c1.1-.2,2.2.5,2.4,1.6l2.8,15.8c.2,1.1-.5,2.2-1.6,2.4h0c-1.1.2-2.2-.5-2.4-1.6l-2.8-15.8c-.2-1.1.5-2.2,1.6-2.4Z"/>
  <rect class="cls-12" x="15.2" y="22.9" width="1" height="3.3" transform="translate(-3.7 2.8) rotate(-9.1)"/>
  <path class="cls-2" d="M25.1,18.3v-.2c.1-.3,0-.7,0-1v-.6c0,0,0,0,0,0v-.6c.2.2.4.4.5.7,0,0,0,0,0,0,.2.4.2,1,.1,1.5l-.7,3.4v-3.4ZM24.4,16.5h-.2c0-.1-.2-.1-.3-.2-.3,0-.6,0-.8,0-.2.1-.4.3-.5.5,0,0,0,0,0,.1l-.8,4.8c0,.1-.1.3-.3.3h-.7c0,.1,0-.5,0-.5h.4c0,0,.8-4.7.8-4.7,0,0,0-.2,0-.3.2-.4.5-.7.8-.8.4-.2.8-.2,1.2-.1.1,0,.3,0,.4.1h.2c.2.1.3.2.4.3v.6c0,0-.1.2,0,.3h0c0-.1,0,.1,0,.1,0,0,0,0,0-.1,0,0,0,0,0,0-.1-.3-.3-.5-.6-.6h0ZM20.8,25v.7l2-.3c.5,0,.9-.2,1.2-.4.4-.2.6-.6.7-1.1l.4-2.1v-3.4l-1,5.3c0,.3-.2.6-.4.7-.2.2-.6.3-.9.3l-1.9.3ZM20.8,22.2l-4.4.7.5,2.7,4-.7v.7l-4.2.7c-.2,0-.3,0-.4-.3l-.6-3.4c0-.2,0-.3.3-.4l4.8-.8v.7Z"/>
  <path class="cls-10" d="M24.5,16.1h-.2c-.8-.4-1.9,0-2.1.8l-.8,4.8-5.5.9.6,3.4,6.2-1c.8-.1,1.5-.4,1.6-1.3l1.1-5.5c.2-.9,0-1.7-.9-2.1Z"/>
  <path class="cls-14" d="M32.4,14.4l-3.7.3v-.7l3.6-.3c.5,0,1,.1,1.4.4.4.3.6.8.7,1.3l1.1,12.9c0,.5-.1,1-.4,1.4-.3.4-.8.6-1.3.7l-5.1.4v-.7l5-.4c.3,0,.6-.2.8-.4.2-.2.3-.6.3-.9l-1.1-12.9c0-.3-.2-.6-.4-.8-.2-.2-.6-.3-.9-.3ZM28.7,14.7l-5,.4c-.3,0-.6.2-.8.4-.2.2-.3.6-.3.9l1.1,12.9c0,.3.2.6.4.8.2.2.6.3.9.3l3.7-.3v.7l-3.6.3c-.5,0-1-.1-1.4-.4-.4-.3-.6-.8-.7-1.3l-1.1-12.9c0-.5.1-1,.4-1.4.3-.4.8-.6,1.3-.7l5.1-.4v.7Z"/>
  <rect class="cls-8" x="22.8" y="14.4" width="11.8" height="16" rx="1.6" ry="1.6" transform="translate(-1.8 2.5) rotate(-4.9)"/>
  <polygon class="cls-7" points="27.4 15.2 29.4 30.4 27.8 30.9 26.4 30.6 26.3 15.2 27.4 15.2"/>
  <path class="cls-10" d="M26.7,23.7v-6.9s.4,0,.4,0l.8,6.9-.6.9-.6-.9Z"/>
  <path class="cls-13" d="M30.5,13.7l-1.9,3.5-1.6-1.8-2.6,1.6-.7-2.6s6.9-.5,6.9-.7Z"/>
  <path class="cls-10" d="M26.6,15.5c-.2.4-.2.8,0,1.1h.6c.3-.3.3-.7,0-1.2h-.7Z"/>
  <path class="cls-10" d="M26.3,5.2c-2.6.2-4.5,2.5-4.3,5.1.2,2.6,2.5,4.5,5.1,4.3,2.6-.2,4.5-2.5,4.3-5.1-.2-2.6-2.5-4.5-5.1-4.3Z"/>
  <path class="cls-9" d="M40.7,26.9l1-.5c.2-.1.5,0,.6.2l.6,1.2,2.2-1.1c.6-.3,1.3,0,1.6.5l2.3,4.6c.3.6,0,1.3-.5,1.6l-7.8,3.9v-8.5l1.7-.9-.3-.7c-.1-.2-.4-.3-.6-.2l-.7.4v-.6ZM36.7,30.9l2.2-1.1-.6-1.2c-.1-.2,0-.5.2-.6l2.2-1.1v.6l-1.4.7c-.2.1-.3.4-.2.6l.3.7,1.3-.7v8.5l-.6.3c-.6.3-1.3,0-1.6-.5l-2.3-4.6c-.3-.6,0-1.3.5-1.6Z"/>
  <path class="cls-10" d="M36.1,20h0c.7-.4,1.6-.2,2,.5l3.6,6c.4.7.2,1.6-.5,2h0c-.7.4-1.6.2-2-.5l-3.6-6c-.4-.7-.2-1.6.5-2Z"/>
  <rect class="cls-12" x="37.7" y="24.9" width="3.3" height="1" transform="translate(-7.4 23.4) rotate(-30.4)"/>
  <path class="cls-14" d="M37.3,26.1l-1.7-3v-1.3l2.1,3.7,2.5-1.4-2.9-5c0,0-.1-.2-.2-.2,0,0-.1-.1-.2-.2h0s0,0,0,0l-1.3-1.4v-.9l1.7,1.8c.1,0,.2.2.3.3,0,.1.2.2.3.3l3,5.3c0,.2,0,.4-.1.4l-3,1.7c-.2,0-.4,0-.4-.1ZM35.6,23.1l-1.1-1.9h0s0,0,0,0l-3.5-3.6c-.4-.4-.6-.9-.6-1.4,0-.5.2-1,.6-1.4l.2-.2h0s0,0,0,0h0c.4-.4.9-.6,1.4-.5.5,0,1,.2,1.4.6h0s0,0,0,0h0s1.7,1.8,1.7,1.8v.9l-2.2-2.3h0c-.2-.3-.6-.4-.9-.4-.3,0-.7.1-.9.4h0s-.2.2-.2.2c-.3.3-.4.6-.4.9,0,.3.1.7.4.9l3.5,3.6s0,0,0,0c0,0,0,0,0,0,0,0,0,0,0,0l.6,1v1.3Z"/>
  <path class="cls-10" d="M37.6,25.9l-2.9-5s0,0,0,0l-3.5-3.6c-.6-.6-.6-1.7,0-2.3l.2-.2c.6-.6,1.7-.6,2.3,0l3.5,3.6c.2.1.4.3.5.5l3,5.3-3,1.7Z"/>
</svg>