<?xml version="1.0" encoding="UTF-8"?>
<svg id="Layer_1" data-name="Layer 1" xmlns="http://www.w3.org/2000/svg" version="1.1" viewBox="0 0 50 50">
  <defs>
    <style>
      .cls-1 {
        fill: #bf64df;
      }

      .cls-1, .cls-2, .cls-3, .cls-4 {
        stroke-width: 0px;
      }

      .cls-2 {
        fill: #7b7b7b;
      }

      .cls-3 {
        fill: #f7b545;
      }

      .cls-4 {
        fill: #fff;
      }
    </style>
  </defs>
  <polygon class="cls-4" points="28.1 31.5 28.6 30.9 27.5 30.9 28.1 31.5"/>
  <path class="cls-4" d="M7.7,4.2v41.1h23.2v-5.9c0-.3.1-.5.3-.7.2-.2.4-.3.7-.3h6.1v-12.9l-8.6,9.7c-.3.4-.8.6-1.3.6-.5,0-1-.2-1.3-.6l-4-4.4h-11.6v-2.8h19.9c0,0,1.7-1.9,1.7-1.9H11.2v-2.8h23.1v1l3.6-4.1V4.2H7.7ZM34.4,21.5H11.2v-2.8h23.1v2.8ZM34.4,16.7H14.6v-2.8h19.8v2.8Z"/>
  <path class="cls-1" d="M38,38.5h-6.1c-.3,0-.5.1-.7.3-.2.2-.3.4-.3.7v5.9H7.7V4.2h30.3v16.1l1.9-2.2V3.2c0-.3-.1-.5-.3-.7-.2-.2-.4-.3-.7-.3H6.7c-.3,0-.5.1-.7.3-.2.2-.3.4-.3.7v43c0,.3.1.5.3.7.2.2.4.3.7.3h26.3c.3,0,.5-.1.7-.3l3-2.9h0s2.9-2.9,2.9-2.9c.2-.2.3-.4.3-.7v-17l-1.9,2.2v12.9ZM32.8,45.3v-4.9h5.1l-5.1,4.9Z"/>
  <polygon class="cls-4" points="32.8 45.3 37.9 40.4 32.8 40.4 32.8 45.3"/>
  <rect class="cls-2" x="14.6" y="13.9" width="19.8" height="2.8"/>
  <rect class="cls-2" x="11.2" y="18.6" width="23.1" height="2.8"/>
  <polygon class="cls-2" points="11.2 23.3 11.2 26.2 32.8 26.2 34.4 24.4 34.4 23.3 11.2 23.3"/>
  <path class="cls-2" d="M11.2,28v2.8h11.6l-.7-.8-.8-.9c-.1-.2-.2-.4,0-.6,0-.1.2-.2.4-.2h.1s4.4,1.1,4.4,1.1c0,0,.2,0,.2.1l1.1,1.2h1.1l2.5-2.8h0c0,0-19.9,0-19.9,0Z"/>
  <path class="cls-3" d="M44.8,17l-1.9-1.7c0,0-.2-.1-.3-.1h0c-.1,0-.2,0-.3.2l-2.4,2.7-1.9,2.2-3.6,4.1-1.6,1.8-1.7,1.9-2.5,2.8-.5.6-.6-.6-1.1-1.2c0,0-.1-.1-.2-.1l-4.4-1.1h-.1c-.2,0-.3,0-.4.2-.1.2,0,.4,0,.6l.8.9.7.8,4,4.4c.3.4.8.6,1.3.6.5,0,1-.2,1.3-.6l8.6-9.7,1.9-2.2,5-5.7c.2-.2.2-.5,0-.7Z"/>
</svg>