<?xml version="1.0" encoding="UTF-8"?>
<svg id="Layer_1" data-name="Layer 1" xmlns="http://www.w3.org/2000/svg" version="1.1" viewBox="0 0 50 50">
  <defs>
    <style>
      .cls-1 {
        fill: #c264e1;
      }

      .cls-1, .cls-2 {
        stroke-width: 0px;
      }

      .cls-2 {
        fill: #fbb945;
      }
    </style>
  </defs>
  <path class="cls-1" d="M41.6,26.6c-.9-.3-1.9,0-2.4.6l-2.7,3.7c-.2.2-.4.2-.6,0l-2.7-3.7c-.5-.7-1.5-.9-2.4-.6-1,.4-1.9.7-2.7,1.1-.4.2-.4.7,0,.9,3.2,1.8,4.8,3.8,5.4,7.4,0,.3.3.4.5.4h13.7c.7,0,1.3-.5,1.3-1,0-5.1-1.9-6.7-7.4-8.7h0ZM34,10.4c-6,.2-5.9,6.8-3.7,10.8.3.6.8,1.2,1.4,1.6.4.3.9.5,1.5.5s.2,0,.3-.1c.7.7,1.7,1.5,2.9,1.5h0c1,0,2-.5,2.9-1.5h.3c.5,0,.9-.1,1.3-.4.5-.4,1-.9,1.4-1.4,4.2-5.4,0-16.4-8.2-11.1h0ZM40.8,15.5c.2,1.2-.3,3.3-1,5.3-.9,1.8-2.4,3-3.4,2.9-2-.2-3.3-2.7-3.3-2.8-.6-1.8-1.2-3.7-1.2-4.2s.1-.2.2-.3c1.8-.6,2.9-2.2,3.2-2.9,0-.2.3-.2.4,0,1.2,1.3,4,1.7,4.8,1.9,0,0,.2,0,.2.2h0ZM24.5,29.1c-.8-.4-1.8,0-2.4.7l-2.9,4.6c-.1.2-.4.2-.4,0l-1.2-4c0-.2,0-.4.1-.5l.9-.9c.2-.2,0-.5-.2-.5h-3.1c-.3,0-.4.3-.2.5l.9.9c0,.1.2.3,0,.5l-1.2,4c0,.2-.3.2-.4,0l-2.9-4.6c-.5-.8-1.5-1.1-2.4-.7-5.3,2.2-7.1,4.1-7.2,9.8s.5,1.2,1.2,1.2h27.3c.7,0,1.2-.5,1.2-1.2,0-5.6-1.9-7.6-7.2-9.8h0ZM16.8,26.8c7,0,10.7-15.9,0-16.1-10.7.2-7,16.1,0,16.1h0Z"/>
  <path class="cls-2" d="M41.6,26.6c-.9-.3-1.9,0-2.4.6l-2.7,3.7c-.2.2-.4.2-.6,0l-2.7-3.7c-.5-.7-1.5-.9-2.4-.6-1,.4-1.9.7-2.7,1.1-.4.2-.4.7,0,.9,3.2,1.8,4.8,3.8,5.4,7.4,0,.3.3.4.5.4h13.7c.7,0,1.3-.5,1.3-1,0-5.1-1.9-6.7-7.4-8.7h0ZM34,10.4c-6,.2-5.9,6.8-3.7,10.8.3.6.8,1.2,1.4,1.6.4.3.9.5,1.5.5s.2,0,.3-.1c.7.7,1.7,1.5,2.9,1.5h0c1,0,2-.5,2.9-1.5h.3c.5,0,.9-.1,1.3-.4.5-.4,1-.9,1.4-1.4,4.2-5.4,0-16.4-8.2-11.1h0ZM40.8,15.5c.2,1.2-.3,3.3-1,5.3-.9,1.8-2.4,3-3.4,2.9-2-.2-3.3-2.7-3.3-2.8-.6-1.8-1.2-3.7-1.2-4.2s.1-.2.2-.3c1.8-.6,2.9-2.2,3.2-2.9,0-.2.3-.2.4,0,1.2,1.3,4,1.7,4.8,1.9,0,0,.2,0,.2.2h0Z"/>
</svg>